<svg width="45" height="45" viewBox="0 0 45 45" fill="none" xmlns="http://www.w3.org/2000/svg">
<path d="M10 13.5H18V10.5C18.001 9.97 18.212 9.461 18.587 9.086C18.961 8.712 19.47 8.501 20 8.5H34C34.53 8.501 35.039 8.711 35.414 9.086C35.789 9.461 35.999 9.97 36 10.5V34.5C35.999 35.03 35.788 35.539 35.414 35.913C35.039 36.288 34.53 36.499 34 36.5H10C9.47 36.499 8.962 36.288 8.587 35.913C8.212 35.538 8.001 35.03 8 34.5V15.5C8.001 14.97 8.212 14.461 8.587 14.086C8.961 13.712 9.47 13.501 10 13.5ZM25 34.5H29V29.5H25V34.5ZM20 34.5H23V29.5C23.001 28.97 23.212 28.461 23.587 28.087C23.961 27.712 24.47 27.501 25 27.5H29C29.53 27.501 30.039 27.712 30.414 28.087C30.788 28.461 30.999 28.97 31 29.5V34.5H34L34.001 10.5H20V34.5ZM10 34.5H18V15.5H10V34.5ZM23 22.5C23 22.698 23.059 22.891 23.169 23.056C23.278 23.22 23.435 23.348 23.617 23.424C23.8 23.5 24.001 23.519 24.195 23.481C24.389 23.442 24.567 23.347 24.707 23.207C24.847 23.067 24.942 22.889 24.981 22.695C25.019 22.501 25 22.3 24.924 22.117C24.848 21.935 24.72 21.778 24.556 21.669C24.391 21.559 24.198 21.5 24 21.5C23.735 21.5 23.48 21.605 23.293 21.793C23.105 21.98 23 22.235 23 22.5ZM23 18.5C23 18.698 23.059 18.891 23.169 19.056C23.278 19.22 23.435 19.348 23.617 19.424C23.8 19.5 24.001 19.519 24.195 19.481C24.389 19.442 24.567 19.347 24.707 19.207C24.847 19.067 24.942 18.889 24.981 18.695C25.019 18.501 25 18.3 24.924 18.117C24.848 17.935 24.72 17.778 24.556 17.669C24.391 17.559 24.198 17.5 24 17.5C23.735 17.5 23.48 17.605 23.293 17.793C23.105 17.98 23 18.235 23 18.5ZM23 14.5C23 14.698 23.059 14.891 23.169 15.056C23.278 15.22 23.435 15.348 23.617 15.424C23.8 15.5 24.001 15.519 24.195 15.481C24.389 15.442 24.567 15.347 24.707 15.207C24.847 15.067 24.942 14.889 24.981 14.695C25.019 14.501 25 14.3 24.924 14.117C24.848 13.935 24.72 13.778 24.556 13.669C24.391 13.559 24.198 13.5 24 13.5C23.735 13.5 23.48 13.605 23.293 13.793C23.105 13.98 23 14.235 23 14.5ZM29 22.5C29 22.698 29.059 22.891 29.169 23.056C29.278 23.22 29.435 23.348 29.617 23.424C29.8 23.5 30.001 23.519 30.195 23.481C30.389 23.442 30.567 23.347 30.707 23.207C30.847 23.067 30.942 22.889 30.981 22.695C31.019 22.501 31 22.3 30.924 22.117C30.848 21.935 30.72 21.778 30.556 21.669C30.391 21.559 30.198 21.5 30 21.5C29.735 21.5 29.48 21.605 29.293 21.793C29.105 21.98 29 22.235 29 22.5ZM29 18.5C29 18.698 29.059 18.891 29.169 19.056C29.278 19.22 29.435 19.348 29.617 19.424C29.8 19.5 30.001 19.519 30.195 19.481C30.389 19.442 30.567 19.347 30.707 19.207C30.847 19.067 30.942 18.889 30.981 18.695C31.019 18.501 31 18.3 30.924 18.117C30.848 17.935 30.72 17.778 30.556 17.669C30.391 17.559 30.198 17.5 30 17.5C29.735 17.5 29.48 17.605 29.293 17.793C29.105 17.98 29 18.235 29 18.5ZM29 14.5C29 14.698 29.059 14.891 29.169 15.056C29.278 15.22 29.435 15.348 29.617 15.424C29.8 15.5 30.001 15.519 30.195 15.481C30.389 15.442 30.567 15.347 30.707 15.207C30.847 15.067 30.942 14.889 30.981 14.695C31.019 14.501 31 14.3 30.924 14.117C30.848 13.935 30.72 13.778 30.556 13.669C30.391 13.559 30.198 13.5 30 13.5C29.735 13.5 29.48 13.605 29.293 13.793C29.105 13.98 29 14.235 29 14.5Z" fill="#3C3C3C"/>
</svg>
