<svg width="45" height="45" viewBox="0 0 45 45" fill="none" xmlns="http://www.w3.org/2000/svg">
<g clip-path="url(#clip0_2_1364)">
<path d="M19 25.875L14 36.875" stroke="#3C3C3C" stroke-width="2" stroke-linejoin="round"/>
<path d="M27 25.875L32 36.875" stroke="#3C3C3C" stroke-width="2" stroke-linejoin="round"/>
<path d="M23 36.875V25.875" stroke="#3C3C3C" stroke-width="2" stroke-linejoin="round"/>
<path d="M12 15.875C12 21.95 16.925 26.875 23 26.875C29.075 26.875 34 21.95 34 15.875" stroke="#3C3C3C" stroke-width="2" stroke-linejoin="round"/>
<path d="M30 31.875H16" stroke="#3C3C3C" stroke-width="2" stroke-linejoin="round"/>
<path d="M13 18.875H9" stroke="#3C3C3C" stroke-width="2" stroke-linejoin="round"/>
<path d="M37 18.875H33" stroke="#3C3C3C" stroke-width="2" stroke-linejoin="round"/>
<path d="M19.705 14.875C16.152 14.875 11 14.875 11 14.875" stroke="#3C3C3C" stroke-width="2" stroke-linejoin="round"/>
<path d="M35 14.875C35 14.875 32.307 14.875 29.527 14.875" stroke="#3C3C3C" stroke-width="2" stroke-linejoin="round"/>
<path d="M30.994 -13.125C30.999 -8.292 27 -7.042 27 -2.125C27 2.792 30.999 4.042 30.994 8.875C30.989 13.708 27 15.042 27 19.875M25.994 -13.125C25.999 -8.292 22 -7.042 22 -2.125C22 2.792 25.999 4.042 25.994 8.875C25.989 13.708 22 15.042 22 19.875M20.994 -13.125C20.999 -8.292 17 -7.042 17 -2.125C17 2.792 20.999 4.042 20.994 8.875C20.989 13.708 17 15.042 17 19.875M30.994 -35.191C30.999 -30.358 27 -29.108 27 -24.191C27 -19.274 30.999 -18.024 30.994 -13.191V-13.125C30.999 -8.292 27 -7.042 27 -2.125C27 2.792 30.999 4.042 30.994 8.875C30.989 13.708 27 15.042 27 19.875M25.994 -35.191C25.999 -30.358 22 -29.108 22 -24.191C22 -19.274 25.999 -18.024 25.994 -13.191V-13.125C25.999 -8.292 22 -7.042 22 -2.125C22 2.792 25.999 4.042 25.994 8.875C25.989 13.708 22 15.042 22 19.875M20.994 -35.191C20.999 -30.358 17 -29.108 17 -24.191C17 -19.274 20.999 -18.024 20.994 -13.191V-13.125C20.999 -8.292 17 -7.042 17 -2.125C17 2.792 20.999 4.042 20.994 8.875C20.989 13.708 17 15.042 17 19.875" stroke="#3C3C3C" stroke-width="2" stroke-linejoin="round"/>
</g>
<defs>
<clipPath id="clip0_2_1364">
<rect width="45" height="45" fill="white"/>
</clipPath>
</defs>
</svg>
