<svg width="45" height="45" viewBox="0 0 45 45" fill="none" xmlns="http://www.w3.org/2000/svg">
<g clip-path="url(#clip0_2_1362)">
<path d="M11 20.5H35V35.5C35 36.052 34.552 36.5 34 36.5H12C11.448 36.5 11 36.052 11 35.5V20.5Z" stroke="#3C3C3C" stroke-width="2"/>
<path d="M38 20.5H35" stroke="#3C3C3C" stroke-width="2"/>
<path d="M11 20.5H8" stroke="#3C3C3C" stroke-width="2"/>
<path d="M16.5 8.5C14.019 8.5 12 10.519 12 13C12 15.137 13.5 16.923 15.5 17.38V15.289C14.619 14.902 14 14.023 14 13C14 11.622 15.122 10.5 16.5 10.5C17.878 10.5 19 11.622 19 13C19 14.023 18.381 14.902 17.5 15.289V17.38C19.5 16.923 21 15.137 21 13C21 10.519 18.981 8.5 16.5 8.5Z" fill="#3C3C3C"/>
<path d="M11 20.5C11 18.291 12.791 16.5 15 16.5H14.737H15.434" stroke="#3C3C3C" stroke-width="2"/>
<path d="M17.602 16.5H18.342C19.403 16.5 20.421 16.921 21.171 17.671L29 25.5" stroke="#3C3C3C" stroke-width="2"/>
<path d="M34.869 -14.375C34.874 -9.54201 30.875 -8.29201 30.875 -3.37501C30.875 1.54199 34.874 2.79199 34.869 7.62499C34.864 12.458 30.875 13.792 30.875 18.625M34.869 -36.441C34.874 -31.608 30.875 -30.358 30.875 -25.441C30.875 -20.524 34.874 -19.274 34.869 -14.441V-14.375C34.874 -9.54201 30.875 -8.29201 30.875 -3.37501C30.875 1.54199 34.874 2.79199 34.869 7.62499C34.864 12.458 30.875 13.792 30.875 18.625" stroke="#3C3C3C" stroke-width="2" stroke-linejoin="round"/>
<path d="M30.669 -15.575C30.674 -10.742 26.675 -9.492 26.675 -4.575C26.675 0.341995 30.674 1.59199 30.669 6.425C30.664 11.258 26.675 12.592 26.675 17.425M30.669 -37.641C30.674 -32.808 26.675 -31.558 26.675 -26.641C26.675 -21.724 30.674 -20.474 30.669 -15.641V-15.575C30.674 -10.742 26.675 -9.492 26.675 -4.575C26.675 0.341995 30.674 1.59199 30.669 6.425C30.664 11.258 26.675 12.592 26.675 17.425" stroke="#3C3C3C" stroke-width="2" stroke-linejoin="round"/>
</g>
<defs>
<clipPath id="clip0_2_1362">
<rect width="45" height="45" fill="white"/>
</clipPath>
</defs>
</svg>
