<svg width="45" height="45" viewBox="0 0 45 45" fill="none" xmlns="http://www.w3.org/2000/svg">
<path d="M34.875 12.5C36.049 12.5 37 13.451 37 14.625C37 15.799 36.049 16.75 34.875 16.75C33.701 16.75 32.75 15.799 32.75 14.625C32.75 13.451 33.701 12.5 34.875 12.5Z" stroke="#3C3C3C" stroke-width="2" stroke-linejoin="round"/>
<path d="M34.875 28.25C36.049 28.25 37 29.201 37 30.375C37 31.549 36.049 32.5 34.875 32.5C33.701 32.5 32.75 31.549 32.75 30.375C32.75 29.201 33.701 28.25 34.875 28.25Z" stroke="#3C3C3C" stroke-width="2" stroke-linejoin="round"/>
<path d="M11.312 27.875C12.589 27.875 13.625 28.911 13.625 30.188C13.625 31.465 12.589 32.5 11.312 32.5C10.035 32.5 9 31.465 9 30.188C9 28.911 10.035 27.875 11.312 27.875Z" stroke="#3C3C3C" stroke-width="2" stroke-linejoin="round"/>
<path d="M11.312 12.5C12.589 12.5 13.625 13.535 13.625 14.812C13.625 16.089 12.589 17.125 11.312 17.125C10.035 17.125 9 16.089 9 14.812C9 13.535 10.035 12.5 11.312 12.5Z" stroke="#3C3C3C" stroke-width="2" stroke-linejoin="round"/>
<path d="M25 32.5V30.5C25 29.395 24.105 28.5 23 28.5C21.895 28.5 21 29.395 21 30.5V32.5" stroke="#3C3C3C" stroke-width="2" stroke-linejoin="round"/>
<path d="M25 12.5V14.5C25 15.605 24.105 16.5 23 16.5C21.895 16.5 21 15.605 21 14.5V12.5" stroke="#3C3C3C" stroke-width="2" stroke-linejoin="round"/>
<path d="M9 12.5H37V32.5H9V12.5Z" stroke="#3C3C3C" stroke-width="2" stroke-linejoin="round"/>
<path d="M25.682 21.548L31 37.5" stroke="#3C3C3C" stroke-width="2" stroke-linejoin="round"/>
<path d="M25 18.5C25.552 18.5 26 18.948 26 19.5C26 20.052 25.552 20.5 25 20.5C24.448 20.5 24 20.052 24 19.5C24 18.948 24.448 18.5 25 18.5Z" fill="#3C3C3C"/>
</svg>
