<svg xmlns="http://www.w3.org/2000/svg" viewBox="0 0 48 48"><defs><style>.cls-1{fill:none;stroke:#000;stroke-linecap:round;stroke-linejoin:round;stroke-width:2px;}</style></defs><title>bed</title><g id="bed"><path class="cls-1" d="M7,21H41a4,4,0,0,1,4,4v8a0,0,0,0,1,0,0H3a0,0,0,0,1,0,0V25A4,4,0,0,1,7,21Z"/><line class="cls-1" x1="45" y1="29" x2="3" y2="29"/><path class="cls-1" d="M9,11H39a2,2,0,0,1,2,2v8a0,0,0,0,1,0,0H7a0,0,0,0,1,0,0V13A2,2,0,0,1,9,11Z"/><rect class="cls-1" x="35" y="33" width="6" height="4"/><path class="cls-1" d="M28,15h7a2,2,0,0,1,2,2v4a0,0,0,0,1,0,0H26a0,0,0,0,1,0,0V17A2,2,0,0,1,28,15Z"/><path class="cls-1" d="M13,15h7a2,2,0,0,1,2,2v4a0,0,0,0,1,0,0H11a0,0,0,0,1,0,0V17A2,2,0,0,1,13,15Z"/><rect class="cls-1" x="7" y="33" width="6" height="4"/></g></svg>