<svg xmlns="http://www.w3.org/2000/svg" viewBox="0 0 48 48"><defs><style>.cls-1{fill:none;stroke:#000;stroke-linecap:round;stroke-linejoin:round;stroke-width:2px;}</style></defs><title>bell</title><g id="bell"><path class="cls-1" d="M39,32A15,15,0,0,0,9,32Z"/><path class="cls-1" d="M34,15.87A18.85,18.85,0,0,1,39.47,21"/><path class="cls-1" d="M34,11.28A23.1,23.1,0,0,1,44.2,21"/><line class="cls-1" x1="24" y1="12" x2="24" y2="17"/><line class="cls-1" x1="24" y1="32" x2="24" y2="35"/><path class="cls-1" d="M7,35H41a0,0,0,0,1,0,0v2a2,2,0,0,1-2,2H9a2,2,0,0,1-2-2V35A0,0,0,0,1,7,35Z" transform="translate(48 74) rotate(-180)"/><path class="cls-1" d="M19.41,20.91a12,12,0,0,0-6.49,6.49"/><line class="cls-1" x1="21" y1="12" x2="27" y2="12"/></g></svg>