<svg xmlns="http://www.w3.org/2000/svg" viewBox="0 0 48 48"><defs><style>.cls-1{fill:none;stroke:#000;stroke-linecap:round;stroke-linejoin:round;stroke-width:2px;}</style></defs><title>bus</title><g id="bus"><path class="cls-1" d="M10,5H38a2,2,0,0,1,2,2V38a1,1,0,0,1-1,1H9a1,1,0,0,1-1-1V7A2,2,0,0,1,10,5Z"/><path class="cls-1" d="M11,39h6a0,0,0,0,1,0,0v3a1,1,0,0,1-1,1H12a1,1,0,0,1-1-1V39A0,0,0,0,1,11,39Z"/><path class="cls-1" d="M31,39h6a0,0,0,0,1,0,0v3a1,1,0,0,1-1,1H32a1,1,0,0,1-1-1V39A0,0,0,0,1,31,39Z"/><line class="cls-1" x1="40" y1="31" x2="8" y2="31"/><path class="cls-1" d="M45,23V14a3,3,0,0,0-3-3H6a3,3,0,0,0-3,3v9"/><line class="cls-1" x1="24" y1="30.85" x2="24" y2="11.08"/><line class="cls-1" x1="40" y1="35" x2="33" y2="35"/><line class="cls-1" x1="15" y1="35" x2="8" y2="35"/><line class="cls-1" x1="31" y1="8" x2="17" y2="8"/></g></svg>