<svg xmlns="http://www.w3.org/2000/svg" viewBox="0 0 48 48"><defs><style>.cls-1{fill:none;stroke:#000;stroke-linecap:round;stroke-linejoin:round;stroke-width:2px;}</style></defs><title>calendar</title><g id="calendar"><polyline class="cls-1" points="34 11 45 11 45 41 3 41 3 11 14 11"/><line class="cls-1" x1="18" y1="11" x2="30" y2="11"/><rect class="cls-1" x="10" y="24" width="4" height="4"/><rect class="cls-1" x="18" y="24" width="4" height="4"/><rect class="cls-1" x="26" y="24" width="4" height="4"/><rect class="cls-1" x="10" y="32" width="4" height="4"/><rect class="cls-1" x="18" y="32" width="4" height="4"/><rect class="cls-1" x="26" y="32" width="4" height="4"/><rect class="cls-1" x="34" y="24" width="4" height="4"/><rect class="cls-1" x="34" y="32" width="4" height="4"/><path class="cls-1" d="M16,15a2,2,0,0,1-2-2V9a2,2,0,0,1,4,0v4A2,2,0,0,1,16,15Z"/><path class="cls-1" d="M32,15a2,2,0,0,1-2-2V9a2,2,0,0,1,4,0v4A2,2,0,0,1,32,15Z"/><line class="cls-1" x1="45" y1="19" x2="3" y2="19"/></g></svg>