<svg xmlns="http://www.w3.org/2000/svg" viewBox="0 0 48 48"><defs><style>.cls-1{fill:none;stroke:#000;stroke-linecap:round;stroke-linejoin:round;stroke-width:2px;}</style></defs><title>car</title><g id="car"><path class="cls-1" d="M7,25H41a2,2,0,0,1,2,2v9a1,1,0,0,1-1,1H6a1,1,0,0,1-1-1V27a2,2,0,0,1,2-2Z"/><path class="cls-1" d="M41,25H7L8.77,11.74a2,2,0,0,1,2-1.74h26.5a2,2,0,0,1,2,1.74Z"/><path class="cls-1" d="M7,37h6a0,0,0,0,1,0,0v3a1,1,0,0,1-1,1H8a1,1,0,0,1-1-1V37A0,0,0,0,1,7,37Z"/><path class="cls-1" d="M35,37h6a0,0,0,0,1,0,0v3a1,1,0,0,1-1,1H36a1,1,0,0,1-1-1V37A0,0,0,0,1,35,37Z"/><line class="cls-1" x1="39.57" y1="14" x2="8.43" y2="14"/><line class="cls-1" x1="46" y1="21" x2="46" y2="23"/><line class="cls-1" x1="3" y1="21" x2="3" y2="23"/><circle cx="38" cy="29" r="2"/><circle cx="10" cy="29" r="2"/><line class="cls-1" x1="5" y1="33" x2="43" y2="33"/></g></svg>