<svg xmlns="http://www.w3.org/2000/svg" viewBox="0 0 48 48"><defs><style>.cls-1{fill:none;stroke:#000;stroke-linecap:round;stroke-linejoin:round;stroke-width:2px;}</style></defs><title>dog</title><g id="dog"><line class="cls-1" x1="30" y1="43" x2="30" y2="33"/><line class="cls-1" x1="26" y1="43" x2="26" y2="33"/><line class="cls-1" x1="26" y1="39" x2="20" y2="39"/><path class="cls-1" d="M13,27a8,8,0,0,0,0,16"/><path class="cls-1" d="M35,9a4,4,0,0,0-4-4H28a5,5,0,0,0-5,5v4a3,3,0,0,0,3,3H40a3,3,0,0,0,3-3V9Z"/><path class="cls-1" d="M26,17v3.06C18,20,13,30,13,43H33a1,1,0,0,0,1-1V17Z"/><circle cx="32" cy="10" r="1"/><line class="cls-1" x1="28" y1="11" x2="28" y2="17"/></g></svg>