<svg id="family" xmlns="http://www.w3.org/2000/svg" viewBox="0 0 48 48"><defs><style>.cls-1{fill:none;stroke:#000;stroke-linecap:round;stroke-linejoin:round;stroke-width:2px;}</style></defs><title>family</title><circle class="cls-1" cx="34" cy="12" r="6"/><path class="cls-1" d="M24,31a7,7,0,0,0-7,7v7H31V38A7,7,0,0,0,24,31Z"/><circle class="cls-1" cx="13" cy="15" r="6"/><path class="cls-1" d="M31,41H43V25a7,7,0,0,0-7-7H32a7,7,0,0,0-6,3.42"/><path class="cls-1" d="M19.56,23.75A7,7,0,0,0,14,21H12a7,7,0,0,0-7,7V41H17"/><circle class="cls-1" cx="24" cy="26" r="5"/></svg>