<svg xmlns="http://www.w3.org/2000/svg" viewBox="0 0 48 48"><defs><style>.cls-1{fill:none;stroke:#000;stroke-linecap:round;stroke-linejoin:round;stroke-width:2px;}</style></defs><title>hotel</title><g id="hotel"><rect class="cls-1" x="10" y="17" width="28" height="28"/><rect class="cls-1" x="14" y="29" width="4" height="4"/><rect class="cls-1" x="22" y="29" width="4" height="4"/><rect class="cls-1" x="30" y="29" width="4" height="4"/><rect class="cls-1" x="38" y="29" width="4" height="4"/><rect class="cls-1" x="38" y="37" width="4" height="4"/><rect class="cls-1" x="14" y="21" width="4" height="4"/><rect class="cls-1" x="22" y="21" width="4" height="4"/><rect class="cls-1" x="30" y="21" width="4" height="4"/><rect class="cls-1" x="20" y="37" width="8" height="8"/><line class="cls-1" x1="24" y1="37" x2="24" y2="45"/><line class="cls-1" x1="22" y1="7" x2="22" y2="11"/><line class="cls-1" x1="22" y1="9" x2="26" y2="9"/><line class="cls-1" x1="26" y1="7" x2="26" y2="11"/><rect class="cls-1" x="10" y="4" width="28" height="10"/><circle cx="30" cy="9" r="1"/><circle cx="34" cy="9" r="1"/><circle cx="14" cy="9" r="1"/><circle cx="18" cy="9" r="1"/><line class="cls-1" x1="36" y1="14" x2="36" y2="17"/><line class="cls-1" x1="12" y1="14" x2="12" y2="17"/><rect class="cls-1" x="38" y="25" width="7" height="20"/><rect class="cls-1" x="6" y="29" width="4" height="4"/><rect class="cls-1" x="6" y="37" width="4" height="4"/><rect class="cls-1" x="3" y="25" width="7" height="20"/></g></svg>