<svg xmlns="http://www.w3.org/2000/svg" viewBox="0 0 48 48"><defs><style>.cls-1{fill:none;stroke:#000;stroke-linecap:round;stroke-linejoin:round;stroke-width:2px;}</style></defs><title>money</title><g id="money"><circle class="cls-1" cx="22" cy="26" r="5"/><path class="cls-1" d="M36,16a5,5,0,0,0,5,5V16Z"/><path class="cls-1" d="M40,12a5,5,0,0,0,5,5V12Z"/><path class="cls-1" d="M41,31a5,5,0,0,0-5,5h5Z"/><path class="cls-1" d="M3,31v5H8A5,5,0,0,0,3,31Z"/><path class="cls-1" d="M3,21a5,5,0,0,0,5-5H3Z"/><path class="cls-1" d="M41,29v3h4V27A5,5,0,0,0,41,29Z"/><path class="cls-1" d="M10,16a5,5,0,0,0,2-4H7v4Z"/><rect class="cls-1" x="3" y="16" width="38" height="20"/><polyline class="cls-1" points="45 12 45 32 41 32"/><polyline class="cls-1" points="45 12 7 12 7 16"/></g></svg>