<svg xmlns="http://www.w3.org/2000/svg" viewBox="0 0 48 48"><defs><style>.cls-1,.cls-2{fill:none;stroke:#000;stroke-linecap:round;stroke-width:2px;}.cls-1{stroke-linejoin:round;}.cls-2{stroke-miterlimit:10;}</style></defs><title>party</title><g id="party"><line class="cls-1" x1="26" y1="25" x2="26" y2="28"/><line class="cls-1" x1="27" y1="28" x2="25" y2="28"/><path class="cls-2" d="M26,28c0,4.25-2,4.25-2,8.5s2,4.25,2,8.5"/><line class="cls-1" x1="17" y1="28" x2="17" y2="31"/><line class="cls-1" x1="18" y1="31" x2="16" y2="31"/><path class="cls-2" d="M17,31c0,3-2,3-2,6s2,3,2,6"/><line class="cls-1" x1="34" y1="28" x2="34" y2="31"/><line class="cls-1" x1="35" y1="31" x2="33" y2="31"/><path class="cls-2" d="M34,31c0,2.5-2,2.5-2,5s2,2.5,2,5"/><path class="cls-1" d="M17.72,8.48c-.24,0-.48,0-.72,0a8,8,0,0,0-8,8C9,21.78,13.44,28,17,28c1.93,0,4.11-1.83,5.71-4.35"/><path class="cls-1" d="M29,23.88C30.32,26.22,32.28,28,34,28c2.91,0,6.55-5.09,6.55-9.45A6.55,6.55,0,0,0,35,12.08"/><path class="cls-2" d="M20,12a6,6,0,0,1,6-6"/><path class="cls-1" d="M12,16.44a5,5,0,0,1,5-5"/><path class="cls-1" d="M35,12c0,6-5,13-9,13s-9-7-9-13a9,9,0,0,1,18,0Z"/></g></svg>