<svg xmlns="http://www.w3.org/2000/svg" viewBox="0 0 48 48"><defs><style>.cls-1{fill:none;stroke:#000;stroke-linecap:round;stroke-miterlimit:10;stroke-width:2px;}</style></defs><title>pool</title><g id="pool"><path class="cls-1" d="M12,38c0,3.46-8-3.46-8,0"/><path class="cls-1" d="M20,38c0,3.46-8-3.46-8,0"/><path class="cls-1" d="M28,38c0,3.46-8-3.46-8,0"/><path class="cls-1" d="M36,38c0,3.46-8-3.46-8,0"/><path class="cls-1" d="M44,38c0,3.46-8-3.46-8,0"/><path class="cls-1" d="M15,33V11a3,3,0,0,1,6,0"/><path class="cls-1" d="M33,33V11a3,3,0,0,1,6,0"/><line class="cls-1" x1="33" y1="27" x2="15" y2="27"/><line class="cls-1" x1="33" y1="19" x2="15" y2="19"/></g></svg>