<svg xmlns="http://www.w3.org/2000/svg" viewBox="0 0 48 48"><defs><style>.cls-1{fill:none;stroke:#000;stroke-linecap:round;stroke-linejoin:round;stroke-width:2px;}</style></defs><title>sofa</title><g id="sofa"><path class="cls-1" d="M9,26.05V22a3,3,0,0,0-6,0V32a3,3,0,0,0,3,3H42a3,3,0,0,0,3-3V22a3,3,0,0,0-6,0v4.05"/><path class="cls-1" d="M41,19.17V18a3,3,0,0,0-3-3H10a3,3,0,0,0-3,3v1.17"/><line class="cls-1" x1="41" y1="35" x2="41" y2="37"/><line class="cls-1" x1="7" y1="35" x2="7" y2="37"/><path class="cls-1" d="M38.5,31H9.5a2.5,2.5,0,0,1,0-5h29a2.5,2.5,0,0,1,0,5Z"/></g></svg>